<svg width="501" height="249" viewBox="0 0 501 249" fill="none" xmlns="http://www.w3.org/2000/svg">
<rect width="499.923" height="249" fill="#FF8E6E"/>
<path d="M158.015 124.922C158.015 134.906 156.164 143.742 152.461 151.43C148.757 159.117 143.484 165.047 136.64 169.219C129.843 173.344 122.086 175.406 113.367 175.406C104.648 175.406 96.9137 173.414 90.1637 169.43C83.4137 165.398 78.1403 159.656 74.3434 152.203C70.5934 144.75 68.6246 136.195 68.4371 126.539V120.773C68.4371 110.742 70.2653 101.906 73.9215 94.2656C77.6246 86.5781 82.8981 80.6484 89.7418 76.4766C96.6324 72.3047 104.461 70.2188 113.226 70.2188C121.898 70.2188 129.632 72.2812 136.429 76.4062C143.226 80.5312 148.5 86.4141 152.25 94.0547C156.047 101.648 157.968 110.367 158.015 120.211V124.922ZM132.914 120.633C132.914 110.461 131.203 102.75 127.781 97.5C124.406 92.2031 119.554 89.5547 113.226 89.5547C100.851 89.5547 94.3121 98.8359 93.609 117.398L93.5387 124.922C93.5387 134.953 95.2028 142.664 98.5309 148.055C101.859 153.445 106.804 156.141 113.367 156.141C119.601 156.141 124.406 153.492 127.781 148.195C131.156 142.898 132.867 135.281 132.914 125.344V120.633ZM195.422 139.266V174H170.742V71.625H211.593C219.422 71.625 226.336 73.0781 232.336 75.9844C238.382 78.8438 243.047 82.9453 246.328 88.2891C249.656 93.5859 251.32 99.6094 251.32 106.359C251.32 116.344 247.734 124.336 240.562 130.336C233.437 136.289 223.64 139.266 211.172 139.266H195.422ZM195.422 120.211H211.593C216.375 120.211 220.007 119.016 222.492 116.625C225.023 114.234 226.289 110.859 226.289 106.5C226.289 101.719 225 97.8984 222.422 95.0391C219.843 92.1797 216.328 90.7266 211.875 90.6797H195.422V120.211ZM328.031 130.617H289.218V155.016H335.062V174H264.539V71.625H335.203V90.6797H289.218V112.266H328.031V130.617ZM430.617 174H406.078L369.797 110.297V174H345.117V71.625H369.797L406.007 135.328V71.625H430.617V174Z" fill="#F6F6F6"/>
</svg>
