<svg width="96" height="96" viewBox="0 0 24 24" fill="none" xmlns="http://www.w3.org/2000/svg" data-reactroot="">
<path stroke-linecap="round" stroke-miterlimit="10" stroke-width="1" stroke="#221b38" fill="#C4B6FF" d="M22 12C22 17.52 17.52 22 12 22C6.48 22 2 17.52 2 12C2 6.48 6.48 2 12 2C17.52 2 22 6.48 22 12Z"></path>
<path stroke-linejoin="round" stroke-linecap="round" stroke-miterlimit="10" stroke-width="1" stroke="#221b38" d="M11.23 13H6.77002"></path>
<path stroke-linejoin="round" stroke-linecap="round" stroke-miterlimit="10" stroke-width="1" stroke="#221b38" d="M12 9V11C12 12.66 10.66 14 9 14C7.34 14 6 12.66 6 11V9"></path>
<path stroke-linecap="round" stroke-miterlimit="10" stroke-width="1" stroke="#221b38" d="M9 21.54V9"></path>
<path stroke-linecap="round" stroke-miterlimit="10" stroke-width="1" stroke="#221b38" d="M15 21.54V9"></path>
<path stroke-linejoin="round" stroke-linecap="round" stroke-miterlimit="10" stroke-width="1" stroke="#221b38" fill="#C4B6FF" d="M15 16V8.69999C15 8.28999 15.33 7.95999 15.71 7.99999C16.11 8.03999 16.5 8.36999 16.65 8.67999C16.8 8.99999 16.89 9.35999 17 9.69999C17.25 10.48 17.48 11.28 17.68 12.08C17.85 12.8 18.15 13.62 17.92 14.36C17.66 15.22 16.72 15.52 15.99 15.74C15.93 15.76 15.86 15.78 15.8 15.8C15.54 15.88 15 16 15 16Z"></path>
</svg>
