<?xml version="1.0" encoding="UTF-8"?>
<svg xmlns="http://www.w3.org/2000/svg" xmlns:xlink="http://www.w3.org/1999/xlink" width="480pt" height="480pt" viewBox="0 0 480 480" version="1.1">
<g id="surface24081387">
<rect x="0" y="0" width="480" height="480" style="fill:rgb(99.215686%,27.450982%,34.901962%);fill-opacity:1;stroke:none;"/>
<path style=" stroke:none;fill-rule:nonzero;fill:rgb(100%,100%,100%);fill-opacity:1;" d="M 389.519531 347.277344 L 365.089844 127.417969 C 365.089844 113.59375 353.894531 102.398438 340.074219 102.398438 L 139.925781 102.398438 C 126.105469 102.398438 114.910156 113.59375 114.910156 127.417969 L 90.480469 347.277344 C 90.117188 348.992188 89.890625 350.753906 89.890625 352.582031 C 89.890625 366.40625 101.085938 377.601562 114.910156 377.601562 L 365.089844 377.601562 C 378.914062 377.601562 390.109375 366.40625 390.109375 352.582031 C 390.109375 350.753906 389.882812 348.992188 389.519531 347.277344 Z M 302.546875 163.792969 L 302.546875 177.453125 C 302.546875 211.941406 274.488281 240 240 240 C 205.511719 240 177.453125 211.941406 177.453125 177.453125 L 177.453125 163.792969 C 170.1875 161.21875 164.945312 154.335938 164.945312 146.183594 C 164.945312 135.824219 173.351562 127.417969 183.710938 127.417969 C 194.066406 127.417969 202.472656 135.824219 202.472656 146.183594 L 202.472656 177.453125 C 202.472656 198.144531 219.308594 214.980469 240 214.980469 C 260.691406 214.980469 277.527344 198.144531 277.527344 177.453125 L 277.527344 146.183594 C 277.527344 135.824219 285.933594 127.417969 296.289062 127.417969 C 306.648438 127.417969 315.054688 135.824219 315.054688 146.183594 C 315.054688 154.335938 309.8125 161.21875 302.546875 163.792969 Z M 302.546875 163.792969 "/>
</g>
</svg>
